<svg width="50" height="50" viewBox="0 0 163 130" fill="none" xmlns="http://www.w3.org/2000/svg">
	<path fill="none" d="M56.6,64.4c-2.4,0-4.4,2-4.4,4.4c0,2.4,2,4.4,4.4,4.4c2.4,0,4.4-2,4.4-4.4C61,66.4,59.1,64.4,56.6,64.4z" data-part-id="logo__item--logo_0__0"></path>
	<path fill="none" d="M63.3,49.1c-1.4,0.6-2,2.1-1.5,3.5c0.6,1.4,2.1,2,3.5,1.5c1.4-0.6,2-2.1,1.5-3.5   C66.2,49.2,64.6,48.5,63.3,49.1z" data-part-id="logo__item--logo_0__1"></path>
	<path fill="#7C7C8A" d="M70.1,55.1l0.8-1.9c0.1-0.3-0.2-0.8-0.8-1L69.8,52c0-0.3,0-0.6,0-0.9l0.3-0.1c0.6-0.2,0.9-0.7,0.8-1   l-0.8-1.9c-0.1-0.3-0.7-0.4-1.3-0.2L68.5,48c-0.2-0.2-0.4-0.5-0.7-0.7L68,47c0.2-0.6,0.2-1.1-0.2-1.3L65.9,45   c-0.3-0.1-0.8,0.2-1,0.8l-0.1,0.3c-0.3,0-0.6,0-0.9,0l-0.1-0.3c-0.2-0.6-0.7-0.9-1-0.8l-1.9,0.8c-0.3,0.1-0.4,0.7-0.2,1.3l0.1,0.3   c-0.2,0.2-0.5,0.4-0.7,0.7l-0.3-0.1c-0.6-0.2-1.1-0.2-1.3,0.2l-0.8,1.9c-0.1,0.3,0.2,0.8,0.8,1l0.3,0.1c0,0.3,0,0.6,0,0.9l-0.3,0.1   c-0.6,0.2-0.9,0.7-0.8,1l0.8,1.9c0.1,0.3,0.7,0.4,1.3,0.2l0.3-0.1c0.2,0.2,0.4,0.5,0.7,0.7l-0.1,0.3c-0.2,0.6-0.2,1.1,0.2,1.3   l1.9,0.8c0.3,0.1,0.8-0.2,1-0.8l0.1-0.3c0.3,0,0.6,0,0.9,0l0.1,0.3c0.2,0.6,0.7,0.9,1,0.8l1.9-0.8c0.3-0.1,0.4-0.7,0.2-1.3   l-0.1-0.3c0.2-0.2,0.5-0.4,0.7-0.7l0.3,0.1C69.4,55.5,70,55.4,70.1,55.1z M65.3,54c-1.4,0.6-2.9-0.1-3.5-1.5   c-0.6-1.4,0.1-2.9,1.5-3.5c1.4-0.6,2.9,0.1,3.5,1.5C67.3,51.9,66.7,53.5,65.3,54z" data-part-id="logo__item--logo_0__2"></path>
	<path fill="#7C7C8A" d="M67,72c1.1,0,2-0.6,2-1.3V67c0-0.7-0.9-1-2-1h-0.7c-0.2-1-0.4-1.2-0.7-1.7l0.5-0.5c0.8-0.8,1.1-1.9,0.6-2.3   l-2.7-2.7c-0.5-0.5-1.5-0.2-2.3,0.6l-0.3,0.5c-0.5-0.3-1.4-0.5-1.4-0.7v-0.7c0-1.1-0.8-2.5-1.5-2.5h-3.8c-0.7,0-0.7,1.4-0.7,2.5   v0.7c-1,0.2-1.3,0.4-1.8,0.7l-0.6-0.5c-0.8-0.8-1.9-1.1-2.3-0.6l-2.7,2.7c-0.5,0.5-0.2,1.5,0.6,2.3l0.5,0.6   C47.4,64.8,47.1,65,47,66h-0.7c-1.1,0-2.3,0.3-2.3,1v3.8c0,0.7,1.1,1.3,2.3,1.3H47c0.2,0,0.4,1,0.7,1.6L47.1,74   c-0.8,0.8-1.1,1.8-0.6,2.3l2.7,2.7c0.5,0.5,1.5,0.2,2.3-0.6l0.7-0.5c0.5,0.3,0.8,0.5,1.8,0.7v0.7c0,1.1,0.1,1.8,0.7,1.8h3.8   c0.7,0,1.5-0.7,1.5-1.8v-0.7c0-0.2,0.9-0.4,1.4-0.7l0.4,0.5c0.8,0.8,1.8,1.1,2.3,0.6l2.7-2.7c0.5-0.5,0.2-1.5-0.6-2.3l-0.5-0.4   c0.3-0.5,0.5-1.6,0.7-1.6H67z M56.6,73.3c-2.4,0-4.4-2-4.4-4.4c0-2.4,2-4.4,4.4-4.4c2.4,0,4.4,2,4.4,4.4   C61,71.3,59.1,73.3,56.6,73.3z" data-part-id="logo__item--logo_0__3"></path>
	<path fill="#7C7C8A" d="M139.9,46h-6.4c-1.4,0-2.5,0.9-2.5,2.4v6.9c0,1.5,1.1,2.7,2.5,2.7h6.4c1.4,0,3.1-1.2,3.1-2.7v-6.9   C143,46.9,141.3,46,139.9,46z" data-part-id="logo__item--logo_0__4"></path>
	<path fill="#FBA94C" d="M119,42.7c0-7.5-6.4-13.7-13.9-13.7H23.6C16.2,29,10,35.2,10,42.7v51.6c0,7.5,6.2,13.7,13.6,13.7h81.5   c7.5,0,13.9-6.3,13.9-13.7V88h-10v6.3c0,2.2-1.7,3.7-3.9,3.7H23.6c-2.2,0-3.6-1.5-3.6-3.7V42.7c0-2.2,1.4-3.7,3.6-3.7h81.5   c2.2,0,3.9,1.5,3.9,3.7V60H98.5c-1.4-3-3.5-5.7-6-7.2c-2.2-1.4-4.8-2.2-7.8-2.2c-6.7,0-12.6,4.4-15.5,9.4h13.3l4.8,8.4l-4.8,8.4   l-13.3,0c3,5.6,8.8,9.4,15.5,9.4c3,0,5.7-0.7,7.9-2.1c2.5-1.5,4.6-4.1,5.9-7.1H134V60h-15V42.7z" data-part-id="logo__item--logo_0__5"></path>
	<path fill="#7C7C8A" d="M98.7,111H35.4c-3,0-5.4,2.6-5.4,5.6v2.9c0,0.5,0.1,0.4,0.2,1.4H104c0.1-1,0-1,0-1.4v-2.9   C104,113.6,101.7,111,98.7,111z" data-part-id="logo__item--logo_0__6"></path>
</svg>
